<svg xmlns="http://www.w3.org/2000/svg" width="1000" height="1000" version="1.1">
  <rect x="0" y="0" width="100%" height="100%" fill="#3182c1" />
  <circle cx="50%" cy="50%" r="370" fill="#cb2a29"></circle>
  <circle cx="50%" cy="50%" r="295" fill="#fdfdfd"></circle>
  <svg version="1.2" baseProfile="tiny-ps" xmlns="http://www.w3.org/2000/svg" viewBox="0 0 400 400" width="1000" height="1000"><g  id="Background"><path id="Path 3" d="M280.87 161.49C282.32 162.23 285 164.33 286.84 166.16C289.4 168.72 290.06 170.08 289.64 172C289.35 173.38 287.36 179.68 285.23 186C283.1 192.32 279.74 200.88 277.75 205C275.76 209.13 272.09 215.43 269.59 219C267.08 222.57 261.99 228.55 258.27 232.28C254.55 236.01 250.71 239.27 249.75 239.53C248.79 239.79 246.2 239.1 244 238C241.8 236.9 239.32 236 238.5 236C237.68 236 236.81 234.99 236.57 233.75C236.23 231.98 237.65 230.11 243.21 225C247.1 221.43 252.2 215.8 254.53 212.5C256.86 209.2 260.23 203.57 262.02 200C263.82 196.43 266.35 190.35 267.65 186.5C268.96 182.65 270.02 178.94 270.01 178.25C270 177.3 265.83 177 235 177L235 188C235 194.05 234.78 199.68 234.5 200.5C234.11 201.66 232.28 202 226.5 202C221.3 202 218.92 201.62 218.75 200.75C218.61 200.06 218.61 191.06 219 162L247.25 161.98C262.79 161.98 276.12 161.56 276.87 161.06C277.74 160.48 279.2 160.63 280.87 161.49Z" /><path id="Path 4" class="shp3" d="M130 164.5L187.5 164.75L190.74 168.63C192.51 170.76 193.98 173.51 193.99 174.75C193.99 175.99 193.55 177.22 193 177.5C192.45 177.78 188.85 182.72 178 199L184.75 204.37C188.46 207.32 194.54 212.61 198.25 216.12C201.96 219.63 204.99 223.29 205 224.25C205 225.21 203.09 228.01 200.75 230.47C198.21 233.14 195.59 234.96 194.25 234.97C192.74 234.99 190.61 233.31 187.75 229.83C185.41 226.98 180.01 221.58 168 211L162.25 216.17C159.09 219.01 153.35 223.66 149.5 226.5C145.65 229.34 140.47 232.85 138 234.31C135.53 235.77 133.05 236.98 132.5 237.01C131.95 237.04 129.36 235.37 126.75 233.28C123.63 230.79 122.01 228.73 122 227.25C122 225.51 123.63 224.06 129.25 220.83C133.24 218.54 138.97 214.77 142 212.46C145.03 210.15 151.11 204.48 155.53 199.88C159.95 195.27 164.93 189.47 166.61 187C168.29 184.53 169.96 181.94 170.33 181.25C170.86 180.27 166.97 180.05 152.08 180.25C141.68 180.39 132.9 180.28 132.58 180C132.26 179.72 131.56 177.7 131.02 175.5C130.49 173.3 130.04 169.93 130.02 168L130 164.5Z" /></g></svg>
</svg>
